<?xml version="1.0" encoding="UTF-8" standalone="no"?>
<!DOCTYPE svg PUBLIC "-//W3C//DTD SVG 1.1//EN" "http://www.w3.org/Graphics/SVG/1.1/DTD/svg11.dtd">
<svg width="100%" height="100%" viewBox="0 0 1920 1440" version="1.1" xmlns="http://www.w3.org/2000/svg" xmlns:xlink="http://www.w3.org/1999/xlink" xml:space="preserve" xmlns:serif="http://www.serif.com/" style="fill-rule:evenodd;clip-rule:evenodd;stroke-linejoin:round;stroke-miterlimit:2;">
    <g transform="matrix(14.68,0,0,14.68,-9423.25,-15976.7)">
        <g transform="matrix(50,0,0,50,697.892,1154.74)">
            <path d="M0.246,0.01C0.191,0.01 0.148,-0.007 0.117,-0.042C0.086,-0.076 0.07,-0.129 0.07,-0.202L0.07,-0.412L0.014,-0.428L0.014,-0.528L0.242,-0.528L0.242,-0.201C0.242,-0.175 0.247,-0.155 0.258,-0.141C0.269,-0.128 0.285,-0.121 0.307,-0.121C0.32,-0.121 0.332,-0.123 0.345,-0.128C0.358,-0.133 0.369,-0.14 0.378,-0.149L0.378,-0.412L0.321,-0.428L0.321,-0.528L0.55,-0.528L0.55,-0.116L0.616,-0.1L0.616,-0L0.401,-0L0.39,-0.06C0.373,-0.037 0.352,-0.02 0.328,-0.008C0.304,0.004 0.276,0.01 0.246,0.01Z" style="fill-rule:nonzero;"/>
        </g>
    </g>
    <g transform="matrix(18.2277,0,0,17.8538,-15758.7,-8739.16)">
        <g transform="matrix(50,0,0,50,915.07,522.485)">
            <path d="M0.262,0.01C0.22,0.01 0.181,0.006 0.145,-0.001C0.109,-0.009 0.077,-0.019 0.048,-0.033L0.046,-0.197L0.162,-0.197L0.181,-0.121C0.188,-0.116 0.197,-0.113 0.208,-0.11C0.218,-0.107 0.231,-0.105 0.246,-0.105C0.274,-0.105 0.293,-0.109 0.303,-0.116C0.314,-0.124 0.319,-0.133 0.319,-0.145C0.319,-0.156 0.313,-0.166 0.301,-0.175C0.289,-0.184 0.264,-0.193 0.225,-0.2C0.163,-0.212 0.118,-0.232 0.088,-0.261C0.059,-0.291 0.044,-0.327 0.044,-0.371C0.044,-0.4 0.051,-0.428 0.065,-0.453C0.079,-0.478 0.101,-0.498 0.132,-0.513C0.163,-0.529 0.205,-0.537 0.257,-0.537C0.297,-0.537 0.334,-0.533 0.37,-0.526C0.406,-0.52 0.436,-0.511 0.459,-0.5L0.458,-0.341L0.343,-0.341L0.329,-0.41C0.321,-0.415 0.313,-0.419 0.303,-0.421C0.294,-0.424 0.283,-0.425 0.271,-0.425C0.25,-0.425 0.234,-0.421 0.224,-0.414C0.214,-0.406 0.208,-0.396 0.208,-0.383C0.208,-0.376 0.211,-0.369 0.215,-0.362C0.219,-0.355 0.228,-0.348 0.241,-0.341C0.254,-0.335 0.273,-0.329 0.298,-0.323C0.359,-0.31 0.404,-0.291 0.434,-0.268C0.465,-0.244 0.48,-0.208 0.48,-0.159C0.48,-0.107 0.461,-0.066 0.424,-0.035C0.387,-0.005 0.333,0.01 0.262,0.01Z" style="fill-rule:nonzero;"/>
        </g>
    </g>
    <g transform="matrix(1003.57,0,0,1003.57,320.427,685.243)">
        <path d="M0.106,-0.008L0.104,-0.117L0.104,-0.596L0.031,-0.612L0.031,-0.713L0.369,-0.711C0.425,-0.711 0.474,-0.702 0.516,-0.685C0.557,-0.667 0.589,-0.641 0.611,-0.608C0.634,-0.575 0.645,-0.536 0.645,-0.491C0.645,-0.449 0.634,-0.41 0.611,-0.375C0.588,-0.339 0.557,-0.31 0.518,-0.288C0.479,-0.267 0.434,-0.256 0.383,-0.256L0.265,-0.258L0.265,-0.116L0.266,-0.006L0.106,-0.008M0.47,-0L0.374,-0.277L0.523,-0.328L0.609,-0.117L0.677,-0.1L0.677,-0L0.47,-0M0.265,-0.389L0.371,-0.389C0.404,-0.389 0.43,-0.397 0.448,-0.412C0.466,-0.428 0.475,-0.45 0.475,-0.479C0.475,-0.51 0.465,-0.534 0.447,-0.552C0.429,-0.571 0.403,-0.58 0.369,-0.58L0.265,-0.58L0.265,-0.389" style="fill-rule:nonzero;"/>
    </g>
    <g transform="matrix(819.504,0,0,753.235,1290.35,975.645)">
        <path d="M0.248,0.011C0.193,0.011 0.151,-0.003 0.122,-0.033C0.093,-0.062 0.079,-0.109 0.079,-0.173L0.079,-0.41L-0.088,-0.412L-0.088,-0.53L0.079,-0.528L0.076,-0.762L0.247,-0.762L0.249,-0.528L0.335,-0.528L0.335,-0.41L0.249,-0.41L0.249,-0.173C0.249,-0.156 0.253,-0.144 0.261,-0.137C0.269,-0.13 0.279,-0.127 0.293,-0.127C0.299,-0.127 0.305,-0.127 0.311,-0.128C0.316,-0.129 0.322,-0.129 0.328,-0.13L0.34,-0.002C0.325,0.002 0.31,0.005 0.295,0.008C0.28,0.01 0.264,0.011 0.248,0.011Z" style="fill-rule:nonzero;"/>
    </g>
    <g transform="matrix(832.946,0,0,832.946,325.095,1270.28)">
        <path d="M0.188,0.24L0.188,0.14L0.263,0.124L0.255,-0.615L0.124,-0.714L0.12,-0.902L0.66,-0.512L0.533,-0.447L0.422,-0.512L0.434,0.124L0.508,0.14L0.508,0.24L0.188,0.24Z" style="fill-rule:nonzero;"/>
    </g>
    <g transform="matrix(703.572,0,0,703.572,761.098,1319.87)">
        <path d="M0.193,0.213C0.178,0.213 0.163,0.212 0.148,0.21C0.133,0.207 0.118,0.204 0.102,0.199L0.122,0.077C0.129,0.078 0.135,0.08 0.141,0.08C0.147,0.081 0.153,0.082 0.16,0.082C0.181,0.082 0.199,0.078 0.215,0.07C0.231,0.062 0.241,0.051 0.246,0.035L0.25,0.016L0.081,-0.417L-0.018,-0.676L0.161,-0.676L0.262,-0.418L0.333,-0.204L0.333,-0.2L0.336,-0.2C0.336,-0.2 0.433,-0.434 0.514,-0.491C0.597,-0.549 0.829,-0.528 0.829,-0.528L0.829,-0.428L0.585,-0.419L0.388,0.077C0.378,0.101 0.366,0.123 0.35,0.144C0.334,0.164 0.313,0.181 0.288,0.194C0.262,0.207 0.231,0.213 0.193,0.213Z" style="fill-rule:nonzero;"/>
    </g>
    <g transform="matrix(897.82,0,0,953.556,1090.95,1460.22)">
        <path d="M0.282,0.01C0.229,0.01 0.184,-0.001 0.146,-0.024C0.109,-0.048 0.08,-0.079 0.06,-0.12C0.039,-0.16 0.029,-0.206 0.029,-0.258L0.029,-0.269C0.029,-0.322 0.04,-0.369 0.061,-0.409C0.082,-0.45 0.111,-0.481 0.149,-0.504C0.186,-0.527 0.23,-0.538 0.28,-0.538C0.331,-0.538 0.374,-0.53 0.41,-0.515C0.446,-0.5 0.474,-0.484 0.495,-0.467L0.492,-0.301L0.365,-0.301L0.344,-0.396C0.339,-0.402 0.331,-0.407 0.322,-0.41C0.313,-0.414 0.305,-0.416 0.299,-0.416C0.274,-0.416 0.255,-0.41 0.241,-0.4C0.226,-0.389 0.216,-0.373 0.21,-0.352C0.204,-0.33 0.201,-0.303 0.201,-0.269L0.201,-0.258C0.201,-0.223 0.205,-0.196 0.213,-0.176C0.221,-0.156 0.232,-0.141 0.245,-0.133C0.257,-0.124 0.27,-0.12 0.284,-0.12C0.304,-0.12 0.32,-0.125 0.331,-0.135C0.343,-0.146 0.351,-0.161 0.357,-0.181L0.501,-0.181L0.503,-0.178C0.495,-0.136 0.483,-0.101 0.466,-0.073C0.45,-0.045 0.427,-0.024 0.397,-0.01C0.368,0.003 0.329,0.01 0.282,0.01Z" style="fill-rule:nonzero;"/>
    </g>
</svg>
